<svg width="3670" height="1899" xmlns="http://www.w3.org/2000/svg" xmlns:xlink="http://www.w3.org/1999/xlink" overflow="hidden"><defs><clipPath id="clip0"><rect x="199" y="368" width="3670" height="1899"/></clipPath></defs><g clip-path="url(#clip0)" transform="translate(-199 -368)"><path d="M2601 868.178 3217.5 406 3834 868.178 3598.52 1616 2836.48 1616Z" stroke="#0070C0" stroke-width="59.5833" stroke-miterlimit="8" fill="none" fill-rule="evenodd"/><rect x="2049" y="1004" width="1276" height="704" fill="#FFFFFF"/><text font-family="Segoe UI Historic,Segoe UI Historic_MSFontService,sans-serif" font-weight="400" font-size="761" transform="matrix(1 0 0 1 655.661 1638)">NELCAS</text><rect x="1262" y="1159" width="315" height="422" fill="#FFFFFF"/><path d="M1322.5 1184.5 1462.61 1342.08" stroke="#0070C0" stroke-width="55" stroke-miterlimit="8" stroke-dasharray="55 55" fill="none" fill-rule="evenodd"/><path d="M0 0 212.264 195.794" stroke="#0070C0" stroke-width="55" stroke-miterlimit="8" stroke-dasharray="55 55" fill="none" fill-rule="evenodd" transform="matrix(-1 0 0 1 1521.76 1366.5)"/><path d="M1459.5 1375C1459.5 1344.35 1484.12 1319.5 1514.5 1319.5 1544.88 1319.5 1569.5 1344.35 1569.5 1375 1569.5 1405.65 1544.88 1430.5 1514.5 1430.5 1484.12 1430.5 1459.5 1405.65 1459.5 1375Z" stroke="#0070C0" stroke-width="4.58333" stroke-miterlimit="8" fill="#0070C0" fill-rule="evenodd"/><rect x="1555" y="1104" width="23.9998" height="55"/></g></svg>