<svg xmlns="http://www.w3.org/2000/svg" xmlns:xlink="http://www.w3.org/1999/xlink" width="500" zoomAndPan="magnify" viewBox="0 0 375 374.999991" height="500" preserveAspectRatio="xMidYMid meet" version="1.0"><defs><g/><clipPath id="id1"><path d="M 86.984375 83 L 134 83 L 134 130 L 86.984375 130 Z M 86.984375 83 " clip-rule="nonzero"/></clipPath><clipPath id="id2"><path d="M 199 83 L 283.484375 83 L 283.484375 194.621094 L 199 194.621094 Z M 199 83 " clip-rule="nonzero"/></clipPath><clipPath id="id3"><path d="M 124 18 L 209 18 L 209 194.621094 L 124 194.621094 Z M 124 18 " clip-rule="nonzero"/></clipPath></defs><g clip-path="url(#id1)"><path fill="#4d4d4d" d="M 86.984375 106.121094 C 86.984375 93.386719 97.339844 83.09375 110.078125 83.09375 C 122.847656 83.09375 133.171875 93.417969 133.171875 106.121094 C 133.171875 118.859375 122.816406 129.152344 110.078125 129.152344 C 97.308594 129.152344 86.984375 118.828125 86.984375 106.121094 Z M 86.984375 106.121094 " fill-opacity="1" fill-rule="evenodd"/></g><path fill="#4d4d4d" d="M 211.25 61.171875 C 200.195312 54.804688 196.417969 40.738281 202.800781 29.714844 C 209.1875 18.6875 223.289062 14.917969 234.34375 21.285156 C 245.398438 27.652344 249.179688 41.71875 242.792969 52.742188 C 236.410156 63.769531 222.304688 67.539062 211.25 61.171875 Z M 211.25 61.171875 " fill-opacity="1" fill-rule="evenodd"/><g clip-path="url(#id2)"><path fill="#4d4d4d" d="M 256.832031 128.898438 L 240.792969 156.585938 C 241.523438 157.507812 242.191406 158.488281 242.792969 159.535156 C 249.179688 170.558594 245.398438 184.625 234.34375 190.992188 C 223.289062 197.359375 209.1875 193.589844 202.800781 182.5625 C 196.417969 171.539062 200.195312 157.472656 211.25 151.105469 C 216.015625 148.382812 221.320312 147.527344 226.371094 148.289062 L 242.414062 120.601562 C 239.203125 116.640625 237.296875 111.636719 237.296875 106.15625 C 237.296875 93.417969 247.652344 83.125 260.390625 83.125 C 273.160156 83.125 283.484375 93.453125 283.484375 106.15625 C 283.484375 118.890625 273.128906 129.183594 260.390625 129.183594 C 259.183594 129.183594 257.976562 129.089844 256.832031 128.898438 Z M 256.832031 128.898438 " fill-opacity="1" fill-rule="evenodd"/></g><g clip-path="url(#id3)"><path fill="#246fb5" d="M 151.214844 63.988281 C 142.066406 65.414062 132.566406 61.234375 127.644531 52.742188 C 121.257812 41.71875 125.039062 27.652344 136.09375 21.285156 C 147.148438 14.917969 161.25 18.6875 167.636719 29.714844 C 172.558594 38.203125 171.449219 48.5 165.636719 55.691406 L 181.675781 83.378906 C 182.820312 83.1875 184.027344 83.09375 185.234375 83.09375 C 198.003906 83.09375 208.328125 93.417969 208.328125 106.121094 C 208.328125 118.859375 197.972656 129.152344 185.234375 129.152344 C 184.027344 129.152344 182.851562 129.058594 181.707031 128.867188 L 165.667969 156.585938 C 171.480469 163.777344 172.59375 174.074219 167.667969 182.53125 C 161.285156 193.558594 147.179688 197.328125 136.125 190.960938 C 125.070312 184.589844 121.292969 170.527344 127.675781 159.5 C 132.566406 151.011719 142.066406 146.832031 151.214844 148.257812 L 167.253906 120.535156 C 164.078125 116.578125 162.140625 111.570312 162.140625 106.089844 C 162.140625 100.609375 164.046875 95.605469 167.253906 91.644531 L 151.214844 63.957031 Z M 151.214844 63.988281 " fill-opacity="1" fill-rule="evenodd"/></g><g fill="#246fb5" fill-opacity="1"><g transform="translate(13.856643, 301.654091)"><g><path d="M 42.125 0 C 41.144531 0 40.457031 -0.457031 40.0625 -1.375 L 28.671875 -26.90625 C 28.546875 -27.238281 28.285156 -27.40625 27.890625 -27.40625 L 21.796875 -27.40625 C 21.335938 -27.40625 21.109375 -27.175781 21.109375 -26.71875 L 21.109375 -1.765625 C 21.109375 -1.242188 20.941406 -0.816406 20.609375 -0.484375 C 20.285156 -0.160156 19.863281 0 19.34375 0 L 6.578125 0 C 6.054688 0 5.628906 -0.160156 5.296875 -0.484375 C 4.972656 -0.816406 4.8125 -1.242188 4.8125 -1.765625 L 4.8125 -66.96875 C 4.8125 -67.5 4.972656 -67.925781 5.296875 -68.25 C 5.628906 -68.582031 6.054688 -68.75 6.578125 -68.75 L 35.15625 -68.75 C 39.476562 -68.75 43.273438 -67.863281 46.546875 -66.09375 C 49.816406 -64.320312 52.351562 -61.816406 54.15625 -58.578125 C 55.957031 -55.335938 56.859375 -51.625 56.859375 -47.4375 C 56.859375 -43.113281 55.789062 -39.347656 53.65625 -36.140625 C 51.53125 -32.929688 48.570312 -30.609375 44.78125 -29.171875 C 44.320312 -28.972656 44.191406 -28.644531 44.390625 -28.1875 L 56.953125 -2.0625 L 57.15625 -1.28125 C 57.15625 -0.425781 56.628906 0 55.578125 0 Z M 21.796875 -54.796875 C 21.335938 -54.796875 21.109375 -54.566406 21.109375 -54.109375 L 21.109375 -40.5625 C 21.109375 -40.101562 21.335938 -39.875 21.796875 -39.875 L 32.5 -39.875 C 34.925781 -39.875 36.890625 -40.539062 38.390625 -41.875 C 39.898438 -43.21875 40.65625 -45.003906 40.65625 -47.234375 C 40.65625 -49.523438 39.898438 -51.359375 38.390625 -52.734375 C 36.890625 -54.109375 34.925781 -54.796875 32.5 -54.796875 Z M 21.796875 -54.796875 "/></g></g></g><g fill="#246fb5" fill-opacity="1"><g transform="translate(74.153735, 301.654091)"><g><path d="M 29.65625 -13.0625 C 31.6875 -13.0625 33.566406 -13.367188 35.296875 -13.984375 C 37.035156 -14.609375 38.492188 -15.445312 39.671875 -16.5 C 40.066406 -16.957031 40.492188 -17.1875 40.953125 -17.1875 C 41.347656 -17.1875 41.738281 -16.957031 42.125 -16.5 L 48.21875 -9.234375 C 48.613281 -8.773438 48.8125 -8.347656 48.8125 -7.953125 C 48.8125 -7.492188 48.613281 -7.066406 48.21875 -6.671875 C 45.988281 -4.316406 43.171875 -2.484375 39.765625 -1.171875 C 36.367188 0.128906 32.738281 0.78125 28.875 0.78125 C 24.414062 0.78125 20.46875 -0.0195312 17.03125 -1.625 C 13.59375 -3.226562 10.765625 -5.46875 8.546875 -8.34375 C 4.941406 -12.925781 3.140625 -18.753906 3.140625 -25.828125 C 3.140625 -28.972656 3.5 -31.921875 4.21875 -34.671875 C 5.664062 -39.773438 8.484375 -43.878906 12.671875 -46.984375 C 16.859375 -50.097656 21.769531 -51.65625 27.40625 -51.65625 C 33.945312 -51.65625 39.226562 -49.625 43.25 -45.5625 C 47.28125 -41.507812 49.914062 -35.847656 51.15625 -28.578125 C 51.425781 -26.742188 51.625 -24.75 51.75 -22.59375 C 51.75 -21.40625 51.160156 -20.8125 49.984375 -20.8125 L 20.328125 -20.8125 C 20.128906 -20.8125 19.945312 -20.742188 19.78125 -20.609375 C 19.625 -20.484375 19.578125 -20.289062 19.640625 -20.03125 L 20.234375 -18.0625 C 20.890625 -16.5 22.035156 -15.273438 23.671875 -14.390625 C 25.304688 -13.503906 27.300781 -13.0625 29.65625 -13.0625 Z M 27.109375 -37.609375 C 23.765625 -37.609375 21.503906 -36.003906 20.328125 -32.796875 C 20.066406 -32.140625 19.90625 -31.648438 19.84375 -31.328125 L 19.84375 -31.125 C 19.84375 -30.738281 20.070312 -30.546875 20.53125 -30.546875 L 33.984375 -30.546875 C 34.242188 -30.546875 34.421875 -30.625 34.515625 -30.78125 C 34.617188 -30.945312 34.632812 -31.128906 34.5625 -31.328125 L 34.171875 -32.609375 C 33.648438 -34.171875 32.800781 -35.394531 31.625 -36.28125 C 30.445312 -37.164062 28.941406 -37.609375 27.109375 -37.609375 Z M 27.109375 -37.609375 "/></g></g></g><g fill="#246fb5" fill-opacity="1"><g transform="translate(128.362185, 301.654091)"><g><path d="M 25.734375 0.78125 C 21.078125 0.78125 17.03125 0.144531 13.59375 -1.125 C 10.164062 -2.40625 7.515625 -4.207031 5.640625 -6.53125 C 3.773438 -8.851562 2.84375 -11.519531 2.84375 -14.53125 L 2.84375 -15.03125 C 2.84375 -15.550781 3.003906 -15.972656 3.328125 -16.296875 C 3.660156 -16.628906 4.085938 -16.796875 4.609375 -16.796875 L 16.6875 -16.796875 C 17.875 -16.796875 18.46875 -16.597656 18.46875 -16.203125 L 18.46875 -15.609375 C 18.46875 -14.367188 19.132812 -13.335938 20.46875 -12.515625 C 21.8125 -11.703125 23.53125 -11.296875 25.625 -11.296875 C 27.457031 -11.296875 28.929688 -11.601562 30.046875 -12.21875 C 31.160156 -12.84375 31.71875 -13.679688 31.71875 -14.734375 C 31.71875 -15.773438 31.128906 -16.539062 29.953125 -17.03125 C 28.773438 -17.53125 26.910156 -18.007812 24.359375 -18.46875 C 20.234375 -19.25 16.894531 -20.195312 14.34375 -21.3125 C 11.0625 -22.6875 8.421875 -24.421875 6.421875 -26.515625 C 4.429688 -28.609375 3.4375 -31.421875 3.4375 -34.953125 C 3.4375 -40.066406 5.414062 -44.113281 9.375 -47.09375 C 13.332031 -50.070312 18.554688 -51.5625 25.046875 -51.5625 C 29.429688 -51.5625 33.273438 -50.851562 36.578125 -49.4375 C 39.890625 -48.03125 42.460938 -46.050781 44.296875 -43.5 C 46.128906 -40.945312 47.046875 -38.003906 47.046875 -34.671875 C 47.046875 -34.335938 46.878906 -34.054688 46.546875 -33.828125 C 46.222656 -33.597656 45.796875 -33.484375 45.265625 -33.484375 L 33.578125 -33.484375 C 32.398438 -33.484375 31.8125 -33.679688 31.8125 -34.078125 L 31.8125 -34.671875 C 31.8125 -35.910156 31.222656 -36.921875 30.046875 -37.703125 C 28.867188 -38.492188 27.265625 -38.890625 25.234375 -38.890625 C 23.398438 -38.890625 21.910156 -38.578125 20.765625 -37.953125 C 19.617188 -37.328125 19.046875 -36.460938 19.046875 -35.359375 C 19.046875 -34.242188 19.664062 -33.4375 20.90625 -32.9375 C 22.15625 -32.445312 24.253906 -31.910156 27.203125 -31.328125 C 31.191406 -30.535156 33.875 -29.914062 35.25 -29.46875 C 39.25 -28.15625 42.375 -26.382812 44.625 -24.15625 C 46.882812 -21.925781 48.015625 -18.945312 48.015625 -15.21875 C 48.015625 -10.113281 46 -6.171875 41.96875 -3.390625 C 37.945312 -0.609375 32.535156 0.78125 25.734375 0.78125 Z M 25.734375 0.78125 "/></g></g></g><g fill="#246fb5" fill-opacity="1"><g transform="translate(178.544282, 301.654091)"><g><path d="M 6.671875 0 C 6.148438 0 5.722656 -0.160156 5.390625 -0.484375 C 5.066406 -0.816406 4.90625 -1.242188 4.90625 -1.765625 L 4.90625 -66.96875 C 4.90625 -67.5 5.066406 -67.925781 5.390625 -68.25 C 5.722656 -68.582031 6.148438 -68.75 6.671875 -68.75 L 19.34375 -68.75 C 20.257812 -68.75 20.945312 -68.351562 21.40625 -67.5625 L 34.46875 -46.453125 C 34.789062 -45.992188 35.117188 -45.992188 35.453125 -46.453125 L 48.609375 -67.5625 C 49.066406 -68.351562 49.753906 -68.75 50.671875 -68.75 L 63.34375 -68.75 C 63.863281 -68.75 64.285156 -68.582031 64.609375 -68.25 C 64.941406 -67.925781 65.109375 -67.5 65.109375 -66.96875 L 65.109375 -1.765625 C 65.109375 -1.242188 64.941406 -0.816406 64.609375 -0.484375 C 64.285156 -0.160156 63.863281 0 63.34375 0 L 50.578125 0 C 50.046875 0 49.617188 -0.160156 49.296875 -0.484375 C 48.972656 -0.816406 48.8125 -1.242188 48.8125 -1.765625 L 48.8125 -40.171875 C 48.8125 -40.492188 48.710938 -40.6875 48.515625 -40.75 C 48.316406 -40.820312 48.148438 -40.691406 48.015625 -40.359375 L 40.0625 -27.40625 C 39.601562 -26.613281 38.914062 -26.21875 38 -26.21875 L 32.015625 -26.21875 C 31.097656 -26.21875 30.410156 -26.613281 29.953125 -27.40625 L 22 -40.359375 C 21.863281 -40.691406 21.695312 -40.820312 21.5 -40.75 C 21.3125 -40.6875 21.21875 -40.492188 21.21875 -40.171875 L 21.21875 -1.765625 C 21.21875 -1.242188 21.050781 -0.816406 20.71875 -0.484375 C 20.394531 -0.160156 19.96875 0 19.4375 0 Z M 6.671875 0 "/></g></g></g><g fill="#246fb5" fill-opacity="1"><g transform="translate(248.563536, 301.654091)"><g><path d="M 25.4375 -51.5625 C 29.757812 -51.5625 33.6875 -50.820312 37.21875 -49.34375 C 40.75 -47.875 43.53125 -45.84375 45.5625 -43.25 C 47.59375 -40.664062 48.609375 -37.804688 48.609375 -34.671875 L 48.609375 -1.765625 C 48.609375 -1.242188 48.441406 -0.816406 48.109375 -0.484375 C 47.785156 -0.160156 47.363281 0 46.84375 0 L 34.078125 0 C 33.554688 0 33.128906 -0.160156 32.796875 -0.484375 C 32.472656 -0.816406 32.3125 -1.242188 32.3125 -1.765625 L 32.3125 -3.734375 C 32.3125 -4.054688 32.226562 -4.25 32.0625 -4.3125 C 31.894531 -4.382812 31.710938 -4.289062 31.515625 -4.03125 C 28.898438 -0.820312 24.679688 0.78125 18.859375 0.78125 C 13.679688 0.78125 9.550781 -0.441406 6.46875 -2.890625 C 3.394531 -5.347656 1.859375 -8.96875 1.859375 -13.75 C 1.859375 -18.789062 3.609375 -22.6875 7.109375 -25.4375 C 10.617188 -28.1875 15.679688 -29.5625 22.296875 -29.5625 L 31.625 -29.5625 C 32.082031 -29.5625 32.3125 -29.789062 32.3125 -30.25 L 32.3125 -31.921875 C 32.3125 -33.679688 31.738281 -35.066406 30.59375 -36.078125 C 29.445312 -37.097656 27.828125 -37.609375 25.734375 -37.609375 C 24.222656 -37.609375 22.925781 -37.363281 21.84375 -36.875 C 20.769531 -36.382812 20.003906 -35.710938 19.546875 -34.859375 C 19.210938 -34.398438 18.898438 -34.054688 18.609375 -33.828125 C 18.316406 -33.597656 17.941406 -33.515625 17.484375 -33.578125 L 4.328125 -35.25 C 3.140625 -35.382812 2.613281 -35.84375 2.75 -36.625 C 3.070312 -39.445312 4.25 -41.984375 6.28125 -44.234375 C 8.3125 -46.492188 10.976562 -48.28125 14.28125 -49.59375 C 17.59375 -50.90625 21.3125 -51.5625 25.4375 -51.5625 Z M 23.765625 -10.90625 C 26.253906 -10.90625 28.300781 -11.539062 29.90625 -12.8125 C 31.507812 -14.09375 32.3125 -15.78125 32.3125 -17.875 L 32.3125 -20.03125 C 32.3125 -20.488281 32.082031 -20.71875 31.625 -20.71875 L 25.921875 -20.71875 C 23.429688 -20.71875 21.515625 -20.289062 20.171875 -19.4375 C 18.835938 -18.59375 18.171875 -17.316406 18.171875 -15.609375 C 18.171875 -14.171875 18.660156 -13.023438 19.640625 -12.171875 C 20.617188 -11.328125 21.992188 -10.90625 23.765625 -10.90625 Z M 23.765625 -10.90625 "/></g></g></g><g fill="#246fb5" fill-opacity="1"><g transform="translate(301.102528, 301.654091)"><g><path d="M 51.84375 -36.4375 C 52.894531 -33.226562 53.421875 -29.460938 53.421875 -25.140625 C 53.421875 -20.492188 52.734375 -16.367188 51.359375 -12.765625 C 49.859375 -8.703125 47.421875 -5.410156 44.046875 -2.890625 C 40.671875 -0.367188 36.890625 0.890625 32.703125 0.890625 C 27.722656 0.890625 23.988281 -0.617188 21.5 -3.640625 C 21.3125 -3.898438 21.132812 -3.992188 20.96875 -3.921875 C 20.800781 -3.859375 20.71875 -3.664062 20.71875 -3.34375 L 20.71875 16.203125 C 20.71875 16.722656 20.550781 17.144531 20.21875 17.46875 C 19.894531 17.800781 19.472656 17.96875 18.953125 17.96875 L 6.1875 17.96875 C 5.664062 17.96875 5.238281 17.800781 4.90625 17.46875 C 4.582031 17.144531 4.421875 16.722656 4.421875 16.203125 L 4.421875 -49 C 4.421875 -49.519531 4.582031 -49.941406 4.90625 -50.265625 C 5.238281 -50.597656 5.664062 -50.765625 6.1875 -50.765625 L 18.953125 -50.765625 C 19.472656 -50.765625 19.894531 -50.597656 20.21875 -50.265625 C 20.550781 -49.941406 20.71875 -49.519531 20.71875 -49 L 20.71875 -46.640625 C 20.71875 -46.316406 20.800781 -46.117188 20.96875 -46.046875 C 21.132812 -45.984375 21.3125 -46.085938 21.5 -46.359375 C 23.988281 -49.828125 27.722656 -51.5625 32.703125 -51.5625 C 36.953125 -51.5625 40.878906 -50.148438 44.484375 -47.328125 C 48.085938 -44.515625 50.539062 -40.882812 51.84375 -36.4375 Z M 34.171875 -16.890625 C 35.347656 -19.046875 35.9375 -21.894531 35.9375 -25.4375 C 35.9375 -28.769531 35.378906 -31.484375 34.265625 -33.578125 C 32.890625 -36.003906 30.894531 -37.21875 28.28125 -37.21875 C 25.789062 -37.21875 23.859375 -35.972656 22.484375 -33.484375 C 21.367188 -31.390625 20.8125 -28.707031 20.8125 -25.4375 C 20.8125 -21.832031 21.40625 -18.953125 22.59375 -16.796875 C 23.96875 -14.566406 25.863281 -13.453125 28.28125 -13.453125 C 30.832031 -13.453125 32.796875 -14.597656 34.171875 -16.890625 Z M 34.171875 -16.890625 "/></g></g></g><g fill="#4d4d4d" fill-opacity="1"><g transform="translate(154.105485, 360.741392)"><g><path d="M 4.15625 0 C 3.65625 0 3.40625 -0.25 3.40625 -0.75 L 3.40625 -31.90625 C 3.40625 -32.40625 3.65625 -32.65625 4.15625 -32.65625 L 8.109375 -32.65625 C 8.546875 -32.65625 8.859375 -32.484375 9.046875 -32.140625 L 16.328125 -20.375 C 16.390625 -20.28125 16.457031 -20.234375 16.53125 -20.234375 C 16.613281 -20.234375 16.671875 -20.28125 16.703125 -20.375 L 24.0625 -32.140625 C 24.25 -32.484375 24.5625 -32.65625 25 -32.65625 L 28.921875 -32.65625 C 29.410156 -32.65625 29.65625 -32.40625 29.65625 -31.90625 L 29.65625 -0.75 C 29.65625 -0.25 29.410156 0 28.921875 0 L 25 0 C 24.5 0 24.25 -0.25 24.25 -0.75 L 24.25 -22.8125 C 24.25 -22.9375 24.207031 -23.015625 24.125 -23.046875 C 24.050781 -23.078125 23.984375 -23.03125 23.921875 -22.90625 L 18.375 -13.8125 C 18.1875 -13.46875 17.875 -13.296875 17.4375 -13.296875 L 15.625 -13.296875 C 15.1875 -13.296875 14.875 -13.46875 14.6875 -13.8125 L 9.140625 -22.90625 C 9.078125 -23.03125 9.003906 -23.078125 8.921875 -23.046875 C 8.847656 -23.015625 8.8125 -22.9375 8.8125 -22.8125 L 8.8125 -0.75 C 8.8125 -0.25 8.5625 0 8.0625 0 Z M 4.15625 0 "/></g></g></g><g fill="#4d4d4d" fill-opacity="1"><g transform="translate(187.165415, 360.741392)"><g><path d="M 14.453125 0.46875 C 12.117188 0.46875 10.050781 -0.00390625 8.25 -0.953125 C 6.445312 -1.898438 5.054688 -3.242188 4.078125 -4.984375 C 3.097656 -6.734375 2.609375 -8.738281 2.609375 -11 L 2.609375 -21.640625 C 2.609375 -23.878906 3.101562 -25.859375 4.09375 -27.578125 C 5.09375 -29.304688 6.484375 -30.644531 8.265625 -31.59375 C 10.054688 -32.539062 12.117188 -33.015625 14.453125 -33.015625 C 16.816406 -33.015625 18.890625 -32.539062 20.671875 -31.59375 C 22.460938 -30.644531 23.859375 -29.304688 24.859375 -27.578125 C 25.859375 -25.859375 26.359375 -23.878906 26.359375 -21.640625 L 26.359375 -11 C 26.359375 -8.738281 25.859375 -6.734375 24.859375 -4.984375 C 23.859375 -3.242188 22.460938 -1.898438 20.671875 -0.953125 C 18.890625 -0.00390625 16.816406 0.46875 14.453125 0.46875 Z M 14.453125 -4.203125 C 16.410156 -4.203125 17.976562 -4.804688 19.15625 -6.015625 C 20.34375 -7.222656 20.9375 -8.828125 20.9375 -10.828125 L 20.9375 -21.6875 C 20.9375 -23.707031 20.34375 -25.320312 19.15625 -26.53125 C 17.976562 -27.75 16.410156 -28.359375 14.453125 -28.359375 C 12.523438 -28.359375 10.96875 -27.75 9.78125 -26.53125 C 8.601562 -25.320312 8.015625 -23.707031 8.015625 -21.6875 L 8.015625 -10.828125 C 8.015625 -8.828125 8.601562 -7.222656 9.78125 -6.015625 C 10.96875 -4.804688 12.523438 -4.203125 14.453125 -4.203125 Z M 14.453125 -4.203125 "/></g></g></g></svg>